<svg width="130" height="48" viewBox="0 0 130 48" fill="none" xmlns="http://www.w3.org/2000/svg">
<path d="M52.9995 17.1818V22.8636H38.6245V17.1818H52.9995ZM41.4086 11.9545H49.2495V31.983C49.2495 32.286 49.3016 32.5417 49.4058 32.75C49.5099 32.9489 49.6709 33.1004 49.8887 33.2045C50.1065 33.2992 50.3859 33.3466 50.7268 33.3466C50.9635 33.3466 51.2381 33.3182 51.5506 33.2614C51.8726 33.2045 52.1094 33.1572 52.2609 33.1193L53.3972 38.6307C53.0469 38.7348 52.545 38.8627 51.8916 39.0142C51.2476 39.1657 50.4806 39.2652 49.5904 39.3125C47.7912 39.4072 46.2808 39.2225 45.0592 38.7585C43.8376 38.285 42.919 37.5417 42.3035 36.5284C41.688 35.5152 41.3897 34.2462 41.4086 32.7216V11.9545ZM66.4761 39.3977C64.1087 39.3977 62.0821 38.929 60.3965 37.9915C58.7109 37.0445 57.4183 35.7282 56.5187 34.0426C55.6191 32.3475 55.1693 30.3826 55.1693 28.1477C55.1693 25.9129 55.6191 23.9527 56.5187 22.267C57.4183 20.572 58.7109 19.2557 60.3965 18.3182C62.0821 17.3712 64.1087 16.8977 66.4761 16.8977C68.8435 16.8977 70.87 17.3712 72.5556 18.3182C74.2412 19.2557 75.5338 20.572 76.4335 22.267C77.3331 23.9527 77.7829 25.9129 77.7829 28.1477C77.7829 30.3826 77.3331 32.3475 76.4335 34.0426C75.5338 35.7282 74.2412 37.0445 72.5556 37.9915C70.87 38.929 68.8435 39.3977 66.4761 39.3977ZM66.5329 33.6023C67.1958 33.6023 67.7687 33.3797 68.2516 32.9347C68.7346 32.4896 69.1087 31.8551 69.3738 31.0312C69.639 30.2074 69.7715 29.2273 69.7715 28.0909C69.7715 26.9451 69.639 25.965 69.3738 25.1506C69.1087 24.3267 68.7346 23.6922 68.2516 23.2472C67.7687 22.8021 67.1958 22.5795 66.5329 22.5795C65.8321 22.5795 65.2308 22.8021 64.7289 23.2472C64.227 23.6922 63.8435 24.3267 63.5783 25.1506C63.3132 25.965 63.1806 26.9451 63.1806 28.0909C63.1806 29.2273 63.3132 30.2074 63.5783 31.0312C63.8435 31.8551 64.227 32.4896 64.7289 32.9347C65.2308 33.3797 65.8321 33.6023 66.5329 33.6023Z" fill="#4EA8DE"/>
<path d="M88.8624 39.2841C87.3094 39.2841 85.8795 38.8769 84.5727 38.0625C83.2753 37.2481 82.2337 36.0123 81.4477 34.3551C80.6712 32.6979 80.2829 30.6098 80.2829 28.0909C80.2829 25.4583 80.6901 23.3182 81.5045 21.6705C82.3283 20.0227 83.389 18.8153 84.6863 18.0483C85.9931 17.2812 87.3662 16.8977 88.8056 16.8977C89.8852 16.8977 90.8321 17.0871 91.6465 17.4659C92.4609 17.8352 93.1427 18.3324 93.692 18.9574C94.2412 19.5729 94.6579 20.25 94.942 20.9886H95.0556V9.90909H102.897V39H95.1124V35.4205H94.942C94.639 36.1591 94.2033 36.822 93.6352 37.4091C93.0765 37.9867 92.3946 38.446 91.5897 38.7869C90.7943 39.1184 89.8852 39.2841 88.8624 39.2841ZM91.7602 33.2614C92.4799 33.2614 93.0954 33.053 93.6068 32.6364C94.1276 32.2102 94.5253 31.6136 94.7999 30.8466C95.084 30.0701 95.2261 29.1515 95.2261 28.0909C95.2261 27.0114 95.084 26.0881 94.7999 25.321C94.5253 24.5445 94.1276 23.9527 93.6068 23.5455C93.0954 23.1288 92.4799 22.9205 91.7602 22.9205C91.0405 22.9205 90.4249 23.1288 89.9136 23.5455C89.4117 23.9527 89.0234 24.5445 88.7488 25.321C88.4837 26.0881 88.3511 27.0114 88.3511 28.0909C88.3511 29.1705 88.4837 30.0985 88.7488 30.875C89.0234 31.642 89.4117 32.2339 89.9136 32.6506C90.4249 33.0578 91.0405 33.2614 91.7602 33.2614ZM117.257 39.3977C114.89 39.3977 112.863 38.929 111.178 37.9915C109.492 37.0445 108.2 35.7282 107.3 34.0426C106.4 32.3475 105.951 30.3826 105.951 28.1477C105.951 25.9129 106.4 23.9527 107.3 22.267C108.2 20.572 109.492 19.2557 111.178 18.3182C112.863 17.3712 114.89 16.8977 117.257 16.8977C119.625 16.8977 121.651 17.3712 123.337 18.3182C125.022 19.2557 126.315 20.572 127.215 22.267C128.114 23.9527 128.564 25.9129 128.564 28.1477C128.564 30.3826 128.114 32.3475 127.215 34.0426C126.315 35.7282 125.022 37.0445 123.337 37.9915C121.651 38.929 119.625 39.3977 117.257 39.3977ZM117.314 33.6023C117.977 33.6023 118.55 33.3797 119.033 32.9347C119.516 32.4896 119.89 31.8551 120.155 31.0312C120.42 30.2074 120.553 29.2273 120.553 28.0909C120.553 26.9451 120.42 25.965 120.155 25.1506C119.89 24.3267 119.516 23.6922 119.033 23.2472C118.55 22.8021 117.977 22.5795 117.314 22.5795C116.613 22.5795 116.012 22.8021 115.51 23.2472C115.008 23.6922 114.625 24.3267 114.36 25.1506C114.094 25.965 113.962 26.9451 113.962 28.0909C113.962 29.2273 114.094 30.2074 114.36 31.0312C114.625 31.8551 115.008 32.4896 115.51 32.9347C116.012 33.3797 116.613 33.6023 117.314 33.6023Z" fill="#5E60CE"/>
<g clip-path="url(#clip0_613_96)">
<path d="M24.2731 10.4232C25.3683 15.3543 24.7494 20.4871 22.517 24.9851L21.9972 26.065L22.6542 27.0777C23.5049 28.3825 23.8577 29.9407 23.6482 31.4686C23.4061 31.0121 23.1354 30.5708 22.8377 30.1473L21.0295 27.5633L19.2326 30.1569C19.0746 30.3865 18.9045 30.6076 18.723 30.8193L11.7799 27.4771C11.8295 27.1097 11.8985 26.7517 11.9801 26.3841L12.642 23.5727L9.74607 23.7437C9.26172 23.7734 8.77992 23.8315 8.30321 23.9177C9.36773 22.8202 10.784 22.1213 12.3166 21.9372L13.4727 21.7973L13.9559 20.7936C16.1409 16.2954 19.7686 12.6523 24.2795 10.4263L24.2731 10.4232ZM25.5517 7.78353C25.4067 7.71417 25.2419 7.69877 25.0877 7.74016L25.0052 7.76303C19.312 10.069 14.6955 14.3723 12.0296 19.8585C9.96511 20.107 8.0633 21.0671 6.65651 22.5711C5.24971 24.0751 4.4274 26.0273 4.33326 28.0866C5.90366 26.7876 7.85414 26.0177 9.90666 25.8868C9.73612 26.6555 9.62571 27.4369 9.57642 28.2239C9.54944 28.3668 9.57071 28.515 9.63696 28.6459C9.70321 28.7768 9.81077 28.883 9.9431 28.9482L18.8995 33.2595C19.0802 33.3465 19.3435 33.262 19.5622 33.0386C20.1246 32.5385 20.622 31.9712 21.0431 31.3492C22.2259 33.0329 22.8413 35.0393 22.8 37.0777C24.3908 35.7492 25.4338 33.8884 25.7355 31.8406C26.0372 29.7928 25.5771 27.6971 24.4406 25.9423C27.1656 20.4447 27.6852 14.1064 25.8957 8.19168C25.8693 8.10299 25.8245 8.02055 25.7641 7.9497C25.7037 7.87885 25.6292 7.82118 25.5452 7.78042L25.5517 7.78353Z" fill="#4EA8DE"/>
<path d="M18.5362 22.3411C18.0405 22.1025 17.6255 21.7248 17.3435 21.2556C17.0615 20.7863 16.925 20.2466 16.9513 19.7045C16.9776 19.1623 17.1654 18.6419 17.4912 18.2089C17.817 17.776 18.2662 17.4498 18.782 17.2715C19.2978 17.0932 19.8573 17.0707 20.3899 17.207C20.9224 17.3433 21.4043 17.6322 21.7746 18.0372C22.145 18.4423 22.3873 18.9454 22.471 19.4832C22.5547 20.021 22.4761 20.5693 22.245 21.0591C22.1005 21.379 21.8935 21.6668 21.6356 21.9061C21.3778 22.1454 21.0742 22.3314 20.7423 22.4536C20.4104 22.5758 20.0566 22.6317 19.7012 22.6181C19.3458 22.6046 18.9958 22.5219 18.671 22.3747C18.6273 22.3615 18.5859 22.3416 18.5484 22.3157L18.5362 22.3411Z" fill="#4EA8DE"/>
<path d="M17.067 34.3258C16.908 34.243 16.7342 34.1922 16.556 34.1766C16.3778 34.1609 16.1986 34.1806 16.029 34.2346C15.8594 34.2885 15.7028 34.3756 15.5684 34.4907C15.434 34.6058 15.3245 34.7466 15.2463 34.9048L13.4421 38.653C13.2847 38.9798 13.2657 39.3568 13.3892 39.7009C13.5127 40.0451 13.7686 40.3282 14.1007 40.488C14.4327 40.6478 14.8136 40.6712 15.1596 40.5531C15.5056 40.435 15.7884 40.185 15.9458 39.8582L17.7255 36.1608C17.807 36.0049 17.856 35.8341 17.8699 35.6583C17.8837 35.4826 17.862 35.3055 17.8062 35.1373C17.7503 34.9691 17.6613 34.8132 17.5443 34.6786C17.4274 34.5441 17.2849 34.4337 17.125 34.3537L17.067 34.3258Z" fill="#5E60CE"/>
<path d="M10.0978 30.9711C9.93776 30.8835 9.76192 30.8285 9.58077 30.8093C9.39962 30.7902 9.21687 30.8072 9.0434 30.8595C8.86992 30.9118 8.70927 30.9982 8.57099 31.1137C8.43271 31.2291 8.31964 31.3712 8.2385 31.5315L6.43424 35.2797C6.2769 35.6065 6.25789 35.9835 6.38139 36.3276C6.5049 36.6718 6.76081 36.9549 7.09281 37.1147C7.42482 37.2745 7.80574 37.298 8.15176 37.1798C8.49778 37.0617 8.78057 36.8117 8.93791 36.4849L10.7177 32.7875C10.7991 32.6316 10.8482 32.4608 10.862 32.285C10.8759 32.1093 10.8542 31.9322 10.7983 31.764C10.7424 31.5958 10.6534 31.4399 10.5365 31.3054C10.4195 31.1708 10.277 31.0604 10.1172 30.9804L10.0978 30.9711Z" fill="#5E60CE"/>
<path d="M13.4856 32.6018C13.3262 32.521 13.1527 32.4718 12.9749 32.4571C12.7971 32.4424 12.6186 32.4626 12.4495 32.5163C12.2805 32.5701 12.1241 32.6565 11.9895 32.7705C11.8549 32.8845 11.7446 33.024 11.665 33.1809L9.17875 38.3457C9.02141 38.6726 9.0024 39.0495 9.12591 39.3937C9.24942 39.7378 9.50532 40.0209 9.83733 40.1807C10.1693 40.3406 10.5503 40.364 10.8963 40.2459C11.2423 40.1277 11.5251 39.8778 11.6824 39.5509L14.1289 34.4686C14.2103 34.3127 14.2594 34.1419 14.2732 33.9662C14.287 33.7904 14.2654 33.6133 14.2095 33.4451C14.1536 33.2769 14.0646 33.121 13.9476 32.9865C13.8307 32.8519 13.6882 32.7415 13.5284 32.6616L13.4856 32.6018Z" fill="#5E60CE"/>
</g>
<defs>
<clipPath id="clip0_613_96">
<rect width="22" height="36" fill="white" transform="translate(15.6145 3) rotate(25.7048)"/>
</clipPath>
</defs>
</svg>
